<svg width="54" height="54" viewBox="0 0 54 54" fill="none" xmlns="http://www.w3.org/2000/svg">
<g filter="url(#filter0_d_18_2338)">
<rect x="3" y="3" width="48" height="48" rx="24" fill="#007AFF" shape-rendering="crispEdges"/>
<path fill-rule="evenodd" clip-rule="evenodd" d="M27 19.5C27.4142 19.5 27.75 19.8358 27.75 20.25V26.25H33.75C34.1642 26.25 34.5 26.5858 34.5 27C34.5 27.4142 34.1642 27.75 33.75 27.75H27.75V33.75C27.75 34.1642 27.4142 34.5 27 34.5C26.5858 34.5 26.25 34.1642 26.25 33.75V27.75H20.25C19.8358 27.75 19.5 27.4142 19.5 27C19.5 26.5858 19.8358 26.25 20.25 26.25H26.25V20.25C26.25 19.8358 26.5858 19.5 27 19.5Z" fill="white"/>
</g>
<defs>
<filter id="filter0_d_18_2338" x="0" y="0" width="54" height="54" filterUnits="userSpaceOnUse" color-interpolation-filters="sRGB">
<feFlood flood-opacity="0" result="BackgroundImageFix"/>
<feColorMatrix in="SourceAlpha" type="matrix" values="0 0 0 0 0 0 0 0 0 0 0 0 0 0 0 0 0 0 127 0" result="hardAlpha"/>
<feOffset/>
<feGaussianBlur stdDeviation="1.5"/>
<feComposite in2="hardAlpha" operator="out"/>
<feColorMatrix type="matrix" values="0 0 0 0 0 0 0 0 0 0 0 0 0 0 0 0 0 0 0.47 0"/>
<feBlend mode="normal" in2="BackgroundImageFix" result="effect1_dropShadow_18_2338"/>
<feBlend mode="normal" in="SourceGraphic" in2="effect1_dropShadow_18_2338" result="shape"/>
</filter>
</defs>
</svg>
