<svg width="36" height="36" viewBox="0 0 36 36" fill="none" xmlns="http://www.w3.org/2000/svg">
<g filter="url(#filter0_d_18_2347)">
<rect x="3" y="2" width="30" height="30" rx="15" fill="white" shape-rendering="crispEdges"/>
<path fill-rule="evenodd" clip-rule="evenodd" d="M21.4375 13.5625C21.6447 13.7697 21.6586 14.0914 21.4688 14.2813L18.7188 17.0313L21.7189 20.0313C21.926 20.2384 21.94 20.5602 21.7501 20.75C21.5603 20.9399 21.2385 20.9259 21.0314 20.7188L18.0313 17.7187L15.2814 20.4687C15.0915 20.6586 14.7697 20.6446 14.5626 20.4375C14.3555 20.2303 14.3415 19.9086 14.5314 19.7187L17.2813 16.9687L14.2813 13.9687C14.0742 13.7616 14.0602 13.4398 14.25 13.25C14.4399 13.0601 14.7617 13.0741 14.9688 13.2812L17.9688 16.2812L20.7188 13.5313C20.9086 13.3414 21.2304 13.3554 21.4375 13.5625Z" fill="#007AFF"/>
</g>
<defs>
<filter id="filter0_d_18_2347" x="0.2" y="0.2" width="35.6" height="35.6" filterUnits="userSpaceOnUse" color-interpolation-filters="sRGB">
<feFlood flood-opacity="0" result="BackgroundImageFix"/>
<feColorMatrix in="SourceAlpha" type="matrix" values="0 0 0 0 0 0 0 0 0 0 0 0 0 0 0 0 0 0 127 0" result="hardAlpha"/>
<feOffset dy="1"/>
<feGaussianBlur stdDeviation="1.4"/>
<feComposite in2="hardAlpha" operator="out"/>
<feColorMatrix type="matrix" values="0 0 0 0 0 0 0 0 0 0 0 0 0 0 0 0 0 0 0.25 0"/>
<feBlend mode="normal" in2="BackgroundImageFix" result="effect1_dropShadow_18_2347"/>
<feBlend mode="normal" in="SourceGraphic" in2="effect1_dropShadow_18_2347" result="shape"/>
</filter>
</defs>
</svg>
