<svg width="32" height="32" viewBox="0 0 32 32" fill="none" xmlns="http://www.w3.org/2000/svg">
<rect x="0.5" y="0.5" width="31" height="31" rx="15.5" fill="white"/>
<rect x="0.5" y="0.5" width="31" height="31" rx="15.5" stroke="#E9E9F2"/>
<path fill-rule="evenodd" clip-rule="evenodd" d="M18.4674 11.8012C17.5112 11.8012 16.7361 12.5763 16.7361 13.5325C16.7361 14.4886 17.5112 15.2637 18.4674 15.2637C19.4235 15.2637 20.1986 14.4886 20.1986 13.5325C20.1986 12.5763 19.4235 11.8012 18.4674 11.8012ZM17.7309 13.5325C17.7309 13.1257 18.0606 12.796 18.4674 12.796C18.8741 12.796 19.2038 13.1257 19.2038 13.5325C19.2038 13.9392 18.8741 14.2689 18.4674 14.2689C18.0606 14.2689 17.7309 13.9392 17.7309 13.5325Z" fill="#040509"/>
<path fill-rule="evenodd" clip-rule="evenodd" d="M15.9791 9.3335H16.0203C17.0241 9.33349 17.8055 9.33349 18.4339 9.38064C19.0717 9.4285 19.592 9.52697 20.0652 9.74527C21.0322 10.1914 21.8084 10.9677 22.2546 11.9347C22.4729 12.4078 22.5713 12.9281 22.6192 13.5659C22.6663 14.1944 22.6663 14.9757 22.6663 15.9795V16.0208C22.6663 17.0246 22.6663 17.806 22.6192 18.4344C22.5713 19.0722 22.4729 19.5925 22.2546 20.0657C21.858 20.9252 21.2005 21.6341 20.3802 22.0943C20.3741 22.1011 20.3679 22.1077 20.3614 22.1141C20.2772 22.1984 20.1703 22.2461 20.0604 22.2573C19.5885 22.474 19.0696 22.572 18.4339 22.6197C17.8055 22.6668 17.0241 22.6668 16.0203 22.6668H15.9791C14.9752 22.6668 14.1939 22.6668 13.5655 22.6197C12.9276 22.5718 12.4073 22.4734 11.9342 22.2551C10.9672 21.8089 10.1909 21.0326 9.74478 20.0657C9.52648 19.5925 9.42801 19.0722 9.38015 18.4344C9.333 17.806 9.33301 17.0246 9.33301 16.0208V15.9796C9.33301 14.9757 9.333 14.1944 9.38015 13.5659C9.42801 12.9281 9.52648 12.4078 9.74478 11.9347C10.1909 10.9677 10.9672 10.1914 11.9342 9.74527C12.4073 9.52697 12.9276 9.4285 13.5655 9.38064C14.1939 9.33349 14.9752 9.33349 15.9791 9.3335ZM21.334 19.6858C21.0537 20.275 20.615 20.7708 20.0709 21.1202L18.2369 19.2862L18.4364 19.0866C18.7049 18.8181 18.8854 18.6381 19.0356 18.5107C19.1813 18.387 19.2653 18.3422 19.3294 18.3214C19.4959 18.2673 19.6752 18.2673 19.8417 18.3214C19.9058 18.3422 19.9899 18.387 20.1355 18.5106C20.2856 18.638 20.4661 18.8179 20.7345 19.0864L21.334 19.6858ZM21.6272 18.36C21.6221 18.4276 21.6165 18.4927 21.6103 18.5553L21.4236 18.3687C21.1732 18.1182 20.9641 17.9091 20.7793 17.7522C20.5866 17.5886 20.3879 17.4529 20.1491 17.3753C19.7829 17.2563 19.3883 17.2563 19.022 17.3753C18.7832 17.4529 18.5845 17.5887 18.3918 17.7523C18.207 17.9092 17.9978 18.1183 17.7473 18.3689L17.5283 18.5879L15.9813 17.086C15.7306 16.8425 15.5212 16.6392 15.3364 16.4868C15.1436 16.3278 14.9453 16.1963 14.7083 16.1219C14.3443 16.0078 13.9537 16.0107 13.5914 16.1302C13.3555 16.208 13.1592 16.3425 12.9687 16.5043C12.7862 16.6594 12.5798 16.8658 12.3327 17.1129L10.4498 18.9958C10.4157 18.8116 10.3904 18.6027 10.3722 18.36C10.3281 17.7731 10.3278 17.0289 10.3278 16.0002C10.3278 14.9714 10.3281 14.2272 10.3722 13.6404C10.4158 13.0586 10.5003 12.6716 10.6481 12.3514C10.9951 11.5993 11.5988 10.9956 12.3509 10.6486C12.6711 10.5008 13.0581 10.4163 13.6399 10.3726C14.2268 10.3286 14.9709 10.3283 15.9997 10.3283C17.0284 10.3283 17.7726 10.3286 18.3595 10.3726C18.9412 10.4163 19.3282 10.5008 19.6484 10.6486C20.4005 10.9956 21.0043 11.5993 21.3513 12.3514C21.499 12.6716 21.5835 13.0586 21.6272 13.6404C21.6712 14.2272 21.6715 14.9714 21.6715 16.0002C21.6715 17.0289 21.6712 17.7731 21.6272 18.36ZM12.3509 21.3518C11.7237 21.0624 11.1997 20.5944 10.8417 20.0108L13.022 17.8305C13.2869 17.5656 13.4648 17.3882 13.6129 17.2624C13.7564 17.1404 13.8394 17.0959 13.903 17.0749C14.0676 17.0206 14.2452 17.0193 14.4107 17.0712C14.4745 17.0912 14.5581 17.1345 14.7035 17.2543C14.8534 17.3779 15.0339 17.5527 15.3027 17.8137L17.1843 19.6405L19.0777 21.5339C18.8738 21.5763 18.6392 21.6067 18.3595 21.6277C17.7726 21.6717 17.0284 21.672 15.9997 21.672C14.9709 21.672 14.2268 21.6717 13.6399 21.6277C13.0581 21.584 12.6711 21.4995 12.3509 21.3518Z" fill="#040509"/>
</svg>
