<svg width="32" height="32" viewBox="0 0 32 32" fill="none" xmlns="http://www.w3.org/2000/svg">
<rect x="0.5" y="0.5" width="31" height="31" rx="15.5" fill="white"/>
<rect x="0.5" y="0.5" width="31" height="31" rx="15.5" stroke="#E9E9F2"/>
<path fill-rule="evenodd" clip-rule="evenodd" d="M20.9073 11.0925C20.1275 10.3127 19.2769 10.4823 18.961 10.5813L18.957 10.5826C18.9552 10.5832 18.9535 10.5839 18.9519 10.5849C18.9507 10.5856 18.9495 10.5865 18.9485 10.5875C18.9475 10.5885 18.9462 10.5897 18.9448 10.5911L18.9218 10.6141C18.5958 10.9401 18.4328 11.1031 18.3567 11.2846C18.2531 11.5318 18.2531 11.8103 18.3567 12.0575C18.4328 12.239 18.5958 12.402 18.9218 12.728L19.2718 13.0781C19.5978 13.4041 19.7608 13.5671 19.9423 13.6431C20.1895 13.7467 20.468 13.7467 20.7153 13.6431C20.8967 13.5671 21.0597 13.4041 21.3857 13.0781L21.4087 13.055C21.4101 13.0536 21.4113 13.0524 21.4123 13.0513C21.4133 13.0503 21.4142 13.0492 21.4149 13.0479C21.4159 13.0463 21.4167 13.0446 21.4172 13.0428L21.4185 13.0388C21.5176 12.7229 21.6871 11.8723 20.9073 11.0925ZM18.3761 16.0877C18.7721 15.6917 18.9701 15.4937 19.0443 15.2654C19.1096 15.0645 19.1096 14.8482 19.0443 14.6474C18.9701 14.419 18.7721 14.221 18.3761 13.825L18.1748 13.6238C17.7788 13.2277 17.5808 13.0297 17.3525 12.9555C17.1516 12.8903 16.9353 12.8903 16.7344 12.9555C16.5061 13.0297 16.3081 13.2277 15.9121 13.6238L10.9053 18.6306C10.8601 18.6757 10.8378 18.6982 10.8222 18.7151C10.8215 18.7159 10.821 18.7169 10.8208 18.7179C10.8172 18.7406 10.8133 18.772 10.8057 18.8354L10.5369 21.0754C10.5116 21.2863 10.4977 21.4066 10.495 21.4935C10.4948 21.4998 10.5 21.5051 10.5064 21.5049C10.5933 21.5021 10.7136 21.4882 10.9244 21.4629L13.1644 21.1941C13.2278 21.1865 13.2592 21.1827 13.2819 21.179C13.283 21.1789 13.284 21.1784 13.2848 21.1776C13.3017 21.162 13.3241 21.1397 13.3693 21.0946L18.3761 16.0877ZM18.6134 9.47305C19.1093 9.31749 20.5023 9.0449 21.7286 10.2712C22.9549 11.4975 22.6824 12.8905 22.5268 13.3865C22.5127 13.4315 22.4978 13.4779 22.4622 13.5518C22.434 13.6105 22.3854 13.6907 22.3465 13.7429C22.2958 13.8108 22.2497 13.8568 22.2134 13.8931C22.2112 13.8953 22.2091 13.8973 22.2071 13.8994L14.1906 21.9159C14.1849 21.9216 14.1791 21.9274 14.1731 21.9334C14.1076 21.9992 14.0252 22.082 13.926 22.1478C13.84 22.2049 13.7466 22.2502 13.6486 22.2826C13.5356 22.32 13.4195 22.3336 13.3274 22.3445C13.319 22.3455 13.3108 22.3464 13.3028 22.3474L11.0416 22.6187C10.8597 22.6406 10.6873 22.6613 10.5427 22.6658C10.3881 22.6707 10.198 22.6609 10.0068 22.5747C9.74843 22.4583 9.54157 22.2514 9.42513 21.9931C9.33891 21.8018 9.32918 21.6117 9.33402 21.4571C9.33855 21.3125 9.35925 21.1402 9.3811 20.9583L9.65244 18.6971C9.6534 18.6891 9.65437 18.6809 9.65536 18.6724C9.66621 18.5803 9.67987 18.4643 9.71721 18.3513C9.74963 18.2532 9.79498 18.1599 9.85207 18.0738C9.91784 17.9746 10.0006 17.8922 10.0664 17.8267C10.0724 17.8208 10.0783 17.8149 10.084 17.8092L18.1004 9.79277C18.1025 9.79071 18.1046 9.78861 18.1067 9.78648C18.143 9.75011 18.189 9.704 18.257 9.65332C18.3091 9.61443 18.3894 9.5658 18.448 9.5376C18.5219 9.50203 18.5684 9.48717 18.6134 9.47305Z" fill="#040509"/>
</svg>
